#!OML:ASF H:\Punching\Project 1\Capture day 1\Session 1\female.ASF
:FULLY-SPECIFIED
:DEGREES
2825
root 0.327059 15.651 8.30342 18.808 7.7968 -0.0758452
lowerback 2.90777 1.9901 -3.49819
upperback -3.38359 2.41114 -1.53024
thorax -5.21579 1.30015 0.1918
lowerneck -15.7424 -2.52863 4.09117
upperneck 23.0225 -4.35239 -0.979271
head 9.79145 -1.75355 -1.58384
rclavicle -1.78906e-014 1.90833e-014
rhumerus -5.42698 55.5002 -71.4741
rradius 94.4143
rwrist -5.99583
rhand -23.2025 5.878
rfingers 7.12502
rthumb 3.24752 -24.077
lclavicle -1.78906e-014 1.90833e-014
lhumerus -60.5988 -25.4755 99.3914
lradius 109.238
lwrist 3.4058
lhand -18.7588 7.17496
lfingers 7.12502
lthumb 7.53798 37.0206
rfemur -39.934 1.37201 1.58982
rtibia 24.5442
rfoot 8.53632 -17.1792
rtoes -0.0466916
lfemur -5.99188 -12.1329 -9.23318
ltibia -7.95139e-015
lfoot -10.2818 14.1059
ltoes -13.4479
2826
root 0.218333 15.6237 8.36617 19.0604 8.4024 0.151658
lowerback 3.1053 2.0125 -3.55351
upperback -3.2751 2.43059 -1.5502
thorax -5.21716 1.31017 0.195753
lowerneck -15.8018 -2.73249 3.79734
upperneck 22.4895 -4.57886 -0.864119
head 9.61713 -1.88252 -1.51452
rclavicle 4.49253e-014 -1.39149e-014
rhumerus -6.35122 54.7226 -72.0342
rradius 93.4671
rwrist -5.23515
rhand -23.7556 6.41473
rfingers 7.12502
rthumb 2.71335 -23.5478
lclavicle 4.49253e-014 -1.39149e-014
lhumerus -60.3961 -25.281 99.4502
lradius 109.357
lwrist 3.33521
lhand -18.9566 6.81332
lfingers 7.12502
lthumb 7.34704 36.6658
rfemur -40.3383 0.0331437 2.33944
rtibia 25.8246
rfoot 7.15259 -16.2973
rtoes -1.95441
lfemur -6.22055 -12.5668 -8.78631
ltibia 2.8625e-014
lfoot -10.4031 14.1544
ltoes -13.939
2827
root 0.106621 15.5959 8.42997 19.3325 9.0295 0.379248
lowerback 3.30391 2.02593 -3.59628
upperback -3.1685 2.43853 -1.56769
thorax -5.22028 1.31406 0.196045
lowerneck -15.8743 -2.93592 3.50786
upperneck 21.9646 -4.8057 -0.748869
head 9.45032 -2.01065 -1.4466
rclavicle 1.75924e-014 -2.54444e-014
rhumerus -7.19968 53.8999 -72.5417
rradius 92.4594
rwrist -4.36453
rhand -24.3912 6.95779
rfingers 7.12502
rthumb 2.09958 -23.0116
lclavicle 1.75924e-014 -2.54444e-014
lhumerus -60.1893 -25.1071 99.5113
lradius 109.49
lwrist 3.22725
lhand -19.1251 6.53113
lfingers 7.12502
lthumb 7.18441 36.3892
rfemur -40.7941 -1.27622 3.10797
rtibia 27.2194
rfoot 5.56502 -15.5248
rtoes -3.8836
lfemur -6.48259 -13.0103 -8.30589
ltibia 1.74931e-014
lfoot -10.5222 14.2131
ltoes -14.417
2828
root -0.00785182 15.5687 8.49475 19.6209 9.67552 0.613825
lowerback 3.50909 2.02734 -3.6365
upperback -3.06096 2.43021 -1.58162
thorax -5.22564 1.30983 0.199707
lowerneck -15.9667 -3.13484 3.22834
upperneck 21.4457 -5.02754 -0.639127
head 9.29115 -2.13565 -1.38239
rclavicle 6.85807e-015 5.56597e-015
rhumerus -7.93773 53.0522 -72.969
rradius 91.3988
rwrist -3.49047
rhand -25.075 7.47294
rfingers 7.12502
rthumb 1.43913 -22.502
lclavicle 6.85807e-015 5.56597e-015
lhumerus -59.9799 -24.9407 99.5767
lradius 109.642
lwrist 3.08763
lhand -19.2499 6.34882
lfingers 7.12502
lthumb 7.06393 36.2109
rfemur -41.2939 -2.45998 3.82143
rtibia 28.6759
rfoot 3.89821 -14.9062
rtoes -5.56971
lfemur -6.7748 -13.4636 -7.80163
ltibia -3.18055e-015
lfoot -10.6353 14.2861
ltoes -14.8708
2829
root -0.124531 15.5431 8.55991 19.9338 10.3427 0.854407
lowerback 3.71933 2.01641 -3.66309
upperback -2.95486 2.40576 -1.59477
thorax -5.23423 1.29715 0.197774
lowerneck -16.0866 -3.32891 2.96653
upperneck 20.9332 -5.24485 -0.540296
head 9.14046 -2.2577 -1.32523
rclavicle 1.5704e-014 -1.09332e-014
rhumerus -8.57365 52.1791 -73.3269
rradius 90.3054
rwrist -2.70776
rhand -25.7609 7.91338
rfingers 7.12502
rthumb 0.776646 -22.0649
lclavicle 1.5704e-014 -1.09332e-014
lhumerus -59.7639 -24.7808 99.6452
lradius 109.801
lwrist 2.92915
lhand -19.2981 6.30494
lfingers 7.12502
lthumb 7.01741 36.1686
rfemur -41.8326 -3.48101 4.44996
rtibia 30.1374
rfoot 2.2598 -14.4316
rtoes -6.85698
lfemur -7.11026 -13.9259 -7.27123
ltibia -1.90833e-014
lfoot -10.7406 14.3725
ltoes -15.2902
2830
root -0.24283 15.5192 8.62591 20.2569 11.0012 1.09569
lowerback 3.94427 2.00233 -3.6781
upperback -2.84919 2.37682 -1.60991
thorax -5.25087 1.28184 0.187245
lowerneck -16.2284 -3.51639 2.7266
upperneck 20.4258 -5.45659 -0.449689
head 8.99645 -2.37577 -1.27457
rclavicle 4.57702e-014 -1.15295e-014
rhumerus -9.13953 51.2796 -73.6479
rradius 89.2068
rwrist -2.09246
rhand -26.3873 8.25067
rfingers 7.12502
rthumb 0.171718 -21.729
lclavicle 4.57702e-014 -1.15295e-014
lhumerus -59.5467 -24.6182 99.7137
lradius 109.962
lwrist 2.77728
lhand -19.2748 6.3597
lfingers 7.12502
lthumb 7.03993 36.2226
rfemur -42.3911 -4.28682 4.97064
rtibia 31.5608
rfoot 0.694609 -14.1278
rtoes -7.53321
lfemur -7.46042 -14.3712 -6.72747
ltibia 0
lfoot -10.848 14.4738
ltoes -15.6484
